<svg width="25" height="16" viewBox="0 0 25 16" fill="none" xmlns="http://www.w3.org/2000/svg">
<mask id="mask0_6074_13" style="mask-type:alpha" maskUnits="userSpaceOnUse" x="0" y="0" width="13" height="16">
<path d="M0.5 0.5H12.5V15.5H0.5V0.5Z" fill="black"/>
</mask>
<g mask="url(#mask0_6074_13)">
<path d="M9.68777 8.0001C9.68777 5.61593 10.7875 3.49322 12.5 2.11949C11.2374 1.10663 9.64218 0.5 7.90621 0.5C3.81589 0.5 0.5 3.85793 0.5 8.0001C0.5 12.1423 3.81589 15.5002 7.90621 15.5002C9.64219 15.5002 11.2374 14.8936 12.5 13.8807C10.7875 12.507 9.68777 10.3843 9.68777 8.0001Z" fill="#E30E17"/>
</g>
<path d="M9.68781 7.99999C9.68781 10.3842 10.7875 12.5069 12.5 13.8806C14.2125 12.5069 15.3122 10.3842 15.3122 7.99999C15.3122 5.61582 14.2125 3.49311 12.5 2.11938C10.7875 3.49312 9.68781 5.61582 9.68781 7.99999Z" fill="#EA600A"/>
<mask id="mask1_6074_13" style="mask-type:alpha" maskUnits="userSpaceOnUse" x="12" y="0" width="13" height="16">
<path d="M12.5001 0.5H24.5V15.4999H12.5001V0.5Z" fill="black"/>
</mask>
<g mask="url(#mask1_6074_13)">
<path d="M17.0939 0.5C15.3579 0.5 13.7629 1.10642 12.5001 2.11949C14.2124 3.49323 15.3123 5.61593 15.3123 8.0001C15.3123 10.3841 14.2124 12.507 12.5001 13.8807C13.7629 14.8936 15.3579 15.5 17.0939 15.5C21.1842 15.5 24.5001 12.1423 24.5001 8.0001C24.5001 3.85793 21.1842 0.5 17.0939 0.5" fill="#F59F00"/>
</g>
</svg>
