<svg width="30" height="10" viewBox="0 0 30 10" fill="none" xmlns="http://www.w3.org/2000/svg">
<mask id="mask0_6074_142" style="mask-type:luminance" maskUnits="userSpaceOnUse" x="0" y="0" width="30" height="10">
<path fill-rule="evenodd" clip-rule="evenodd" d="M17.2104 10C16.0711 9.98818 15.0356 9.73344 14.5148 9.48624L14.9534 7.36668L15.0016 7.38993C15.545 7.65225 16.2213 7.97871 17.3487 7.97871C17.3799 7.97871 17.4114 7.97846 17.4433 7.97795C18.1604 7.96639 18.8871 7.66923 18.8943 7.03143C18.898 6.60608 18.5808 6.30289 17.6373 5.8299C16.7183 5.36648 15.4985 4.58941 15.5147 3.19733C15.5279 1.31479 17.2123 0 19.6107 0C20.618 0 21.3875 0.244848 21.8787 0.429011L21.4526 2.47956C20.6565 2.10154 19.9385 2.02207 19.4763 2.02207C19.2868 2.02207 19.1467 2.03552 19.0626 2.0468C18.3145 2.14778 18.0413 2.54626 18.0347 2.85682C18.0253 3.3151 18.5843 3.61802 19.2316 3.96877C20.2142 4.50125 21.4371 5.16395 21.4305 6.69092C21.4232 8.70111 19.7667 10 17.2104 10ZM23.8498 9.84979H23.8492L21.3049 9.84924L24.9425 0.88652C25.1195 0.448875 25.5147 0.177002 25.974 0.177002H28.0436L30 9.84824L27.7586 9.84924L27.4654 8.40396H24.3554L23.8499 9.84924L23.8498 9.84979ZM26.3296 2.79015L25.0534 6.42174H27.0643L26.3296 2.79015ZM12.8499 9.84924H12.8493H10.4254L12.4304 0.177002H14.8542L12.8501 9.84859L12.8499 9.84924ZM7.46241 9.84925H7.46186H4.90048L2.96747 2.13006C2.85219 1.66374 2.75771 1.48568 2.39146 1.28029C1.76212 0.927871 0.743456 0.624196 0 0.457517L0.057307 0.177002L4.18194 0.17701C4.73854 0.17701 5.18791 0.573362 5.30016 1.16329L6.32067 6.75993L8.84438 0.17701H11.3901L7.46261 9.84874L7.46241 9.84925Z" fill="white"/>
</mask>
<g mask="url(#mask0_6074_142)">
<path fill-rule="evenodd" clip-rule="evenodd" d="M17.2104 10C16.0711 9.98818 15.0356 9.73344 14.5148 9.48624L14.9534 7.36668L15.0016 7.38993C15.545 7.65225 16.2213 7.97871 17.3487 7.97871C17.3799 7.97871 17.4114 7.97846 17.4433 7.97795C18.1604 7.96639 18.8871 7.66923 18.8943 7.03143C18.898 6.60608 18.5808 6.30289 17.6373 5.8299C16.7183 5.36648 15.4985 4.58941 15.5147 3.19733C15.5279 1.31479 17.2123 0 19.6107 0C20.618 0 21.3875 0.244848 21.8787 0.429011L21.4526 2.47956C20.6565 2.10154 19.9385 2.02207 19.4763 2.02207C19.2868 2.02207 19.1467 2.03552 19.0626 2.0468C18.3145 2.14778 18.0413 2.54626 18.0347 2.85682C18.0253 3.3151 18.5843 3.61802 19.2316 3.96877C20.2142 4.50125 21.4371 5.16395 21.4305 6.69092C21.4232 8.70111 19.7667 10 17.2104 10ZM23.8498 9.84979H23.8492L21.3049 9.84924L24.9425 0.88652C25.1195 0.448875 25.5147 0.177002 25.974 0.177002H28.0436L30 9.84824L27.7586 9.84924L27.4654 8.40396H24.3554L23.8499 9.84924L23.8498 9.84979ZM26.3296 2.79015L25.0534 6.42174H27.0643L26.3296 2.79015ZM12.8499 9.84924H12.8493H10.4254L12.4304 0.177002H14.8542L12.8501 9.84859L12.8499 9.84924ZM7.46241 9.84925H7.46186H4.90048L2.96747 2.13006C2.85219 1.66374 2.75771 1.48568 2.39146 1.28029C1.76212 0.927871 0.743456 0.624196 0 0.457517L0.057307 0.177002L4.18194 0.17701C4.73854 0.17701 5.18791 0.573362 5.30016 1.16329L6.32067 6.75993L8.84438 0.17701H11.3901L7.46261 9.84874L7.46241 9.84925Z" fill="url(#paint0_linear_6074_142)"/>
</g>
<defs>
<linearGradient id="paint0_linear_6074_142" x1="0" y1="9.99998" x2="30" y2="9.99998" gradientUnits="userSpaceOnUse">
<stop stop-color="#272158"/>
<stop offset="1" stop-color="#164193"/>
</linearGradient>
</defs>
</svg>
